<?xml version="1.0" standalone="no"?>
<!DOCTYPE svg PUBLIC "-//W3C//DTD SVG 20010904//EN"
 "http://www.w3.org/TR/2001/REC-SVG-20010904/DTD/svg10.dtd">
<svg version="1.0" xmlns="http://www.w3.org/2000/svg"
 width="120.000000pt" height="81.000000pt" viewBox="0 0 120.000000 81.000000"
 preserveAspectRatio="xMidYMid meet">

<g transform="translate(0.000000,81.000000) scale(0.100000,-0.100000)"
fill="#000000" stroke="none">
<path d="M449 714 c-17 -21 0 -49 32 -49 18 0 25 6 27 24 6 38 -34 55 -59 25z"/>
<path d="M722 673 c-13 -26 -4 -43 23 -43 27 0 40 26 24 46 -16 19 -37 17 -47
-3z"/>
<path d="M580 600 c-24 -24 -25 -48 -4 -78 28 -40 104 -16 104 34 0 29 -32 64
-60 64 -11 0 -29 -9 -40 -20z m75 -10 c-3 -5 -12 -10 -18 -10 -7 0 -6 4 3 10
19 12 23 12 15 0z"/>
<path d="M697 464 c-14 -14 -7 -35 11 -32 9 2 17 10 17 17 0 16 -18 25 -28 15z"/>
<path d="M492 418 c-28 -28 -3 -72 39 -66 30 4 47 33 33 56 -14 21 -55 27 -72
10z"/>
<path d="M827 283 c-4 -3 -7 -17 -7 -30 0 -12 -6 -23 -12 -23 -10 0 -10 -2 -1
-8 6 -4 13 -25 16 -47 l4 -40 1 42 c1 23 8 44 15 46 10 4 10 6 0 6 -16 1 -17
33 -1 49 7 7 8 12 2 12 -6 0 -14 -3 -17 -7z"/>
<path d="M187 273 c-4 -3 -7 -35 -7 -70 l0 -63 39 0 c30 0 44 6 55 22 17 24
21 65 8 84 -17 26 -79 44 -95 27z m73 -23 c40 -40 16 -100 -41 -100 -28 0 -29
1 -29 53 0 30 3 57 7 60 13 13 43 7 63 -13z"/>
<path d="M630 212 c0 -40 3 -72 8 -72 8 0 6 129 -3 138 -3 3 -5 -27 -5 -66z"/>
<path d="M443 245 c-6 -14 -7 -25 -2 -25 5 0 9 -18 9 -40 0 -32 4 -40 18 -39
10 0 12 3 5 6 -7 2 -13 20 -13 39 0 20 5 34 13 34 8 0 9 2 1 8 -7 4 -13 15
-15 24 -3 15 -6 13 -16 -7z"/>
<path d="M325 220 c-3 -5 -2 -10 4 -10 5 0 13 5 16 10 3 6 2 10 -4 10 -5 0
-13 -4 -16 -10z"/>
<path d="M377 218 c4 -7 8 -26 8 -42 0 -16 6 -31 12 -33 7 -3 10 4 8 14 -13
62 -16 73 -26 73 -6 0 -7 -6 -2 -12z"/>
<path d="M515 220 c-3 -6 1 -7 9 -4 18 7 21 14 7 14 -6 0 -13 -4 -16 -10z"/>
<path d="M568 199 c2 -16 0 -35 -6 -42 -8 -9 -7 -13 6 -13 14 0 16 8 14 38 -2
21 -7 40 -11 43 -4 2 -5 -9 -3 -26z"/>
<path d="M692 185 c-1 -25 1 -45 5 -45 4 0 9 20 9 45 2 59 -10 59 -14 0z"/>
<path d="M747 223 c6 -4 13 -26 16 -48 4 -40 4 -40 3 4 -1 30 -6 46 -16 48
-10 3 -11 2 -3 -4z"/>
<path d="M880 183 c0 -24 4 -43 9 -43 4 0 6 11 4 24 -3 15 2 31 15 44 20 20
20 20 -4 18 -21 -1 -24 -6 -24 -43z"/>
<path d="M955 220 c-3 -6 1 -7 9 -4 18 7 21 14 7 14 -6 0 -13 -4 -16 -10z"/>
<path d="M1008 200 c2 -17 0 -36 -6 -43 -8 -9 -7 -13 6 -13 14 0 16 8 13 43
-1 24 -6 43 -10 43 -4 0 -6 -14 -3 -30z"/>
<path d="M330 175 c-13 -16 -6 -35 13 -34 9 0 9 2 0 6 -20 7 -15 23 10 33 15
6 17 9 6 9 -9 1 -22 -6 -29 -14z"/>
<path d="M523 183 c-15 -6 -18 -43 -3 -43 5 0 7 7 4 15 -4 9 2 18 17 24 13 5
17 10 9 10 -8 -1 -21 -3 -27 -6z"/>
<path d="M963 183 c-15 -6 -18 -43 -3 -43 5 0 7 7 4 15 -4 9 2 18 17 24 13 5
17 10 9 10 -8 -1 -21 -3 -27 -6z"/>
</g>
</svg>
